<svg width="25" height="25" viewBox="0 0 25 25" fill="none" xmlns="http://www.w3.org/2000/svg">
<path d="M23.5749 8.03375H18.9992V4.46587C18.9992 2.00329 16.0812 -3.27826e-07 12.4945 -3.27826e-07C8.908 -3.27826e-07 5.98998 2.00329 5.98998 4.46587V8.03375H1.41406C0.880058 8.03375 0.447265 8.36182 0.447265 8.76617V18.133C0.447265 21.9194 4.5136 25 9.51174 25H15.4774C20.4756 25 24.5419 21.9194 24.5419 18.133V8.76617C24.5417 8.36182 24.1089 8.03375 23.5749 8.03375ZM7.92358 4.46587C7.92358 2.81105 9.97399 1.46484 12.4945 1.46484C15.0149 1.46484 17.0656 2.81105 17.0656 4.46587V8.03375H7.92358V4.46587ZM22.6081 18.133C22.6081 21.1117 19.4093 23.5352 15.4772 23.5352H9.51174C5.57985 23.5352 2.38086 21.1117 2.38086 18.133V9.4986H22.6081V18.133Z" fill="#FF5959"/>
<path d="M23.5749 8.03375H18.9992V4.46587C18.9992 2.00329 16.0812 -3.27826e-07 12.4945 -3.27826e-07C8.908 -3.27826e-07 5.98998 2.00329 5.98998 4.46587V8.03375H1.41406C0.880058 8.03375 0.447265 8.36182 0.447265 8.76617V18.133C0.447265 21.9194 4.5136 25 9.51174 25H15.4774C20.4756 25 24.5419 21.9194 24.5419 18.133V8.76617C24.5417 8.36182 24.1089 8.03375 23.5749 8.03375ZM7.92358 4.46587C7.92358 2.81105 9.97399 1.46484 12.4945 1.46484C15.0149 1.46484 17.0656 2.81105 17.0656 4.46587V8.03375H7.92358V4.46587ZM22.6081 18.133C22.6081 21.1117 19.4093 23.5352 15.4772 23.5352H9.51174C5.57985 23.5352 2.38086 21.1117 2.38086 18.133V9.4986H22.6081V18.133Z" fill="black" fill-opacity="0.2"/>
</svg>
