<svg width="111" height="111" viewBox="0 0 111 111" fill="none" xmlns="http://www.w3.org/2000/svg">
<path d="M111 6.55704V13.2575L104.3 19.9579V1.81872C104.3 0.666469 105.438 -0.147633 106.525 0.234961C109.132 1.1527 111 3.63655 111 6.55704Z" fill="#FF5A35"/>
<path d="M97.5991 1.81873V19.9579L90.8987 13.2575V6.55705C90.8987 3.63633 92.7668 1.15249 95.3735 0.234973C96.4605 -0.147398 97.5991 0.66648 97.5991 1.81873Z" fill="#FF7A3C"/>
<path d="M80.4014 80.7085H67.0005V104.16C67.0005 107.861 70.0001 110.86 73.7009 110.86H80.4014V80.7085Z" fill="#FF3A2F"/>
<path d="M90.8987 51.403L104.3 72.9896C108.204 71.6093 111 67.8861 111 63.5107V51.403H90.8987Z" fill="#FF5A35"/>
<path d="M94.2489 20.1446L104.3 63.0082C108.389 60.6496 111 56.2541 111 51.403V20.1446H94.2489Z" fill="#FF7A3C"/>
<path d="M90.8987 20.1446V33.3588C90.8987 37.0596 87.8992 40.0592 84.1983 40.0592H74.1776C61.985 40.0592 51.3291 48.2873 48.2469 60.0845L46.0409 68.5179L83.7516 83.6122V75.0245C83.7516 72.1478 85.5875 69.5927 88.3123 68.6747L97.5991 65.5434V73.0836C97.5991 74.8816 96.1407 76.34 94.3427 76.34C92.5403 76.34 90.988 77.727 90.9032 79.5272C90.8116 81.4524 92.346 83.0404 94.2489 83.0404C99.7991 83.0404 104.3 78.54 104.3 72.9898V20.1446H90.8987Z" fill="#FF9A42"/>
<path d="M104.3 104.16H97.5991L104.3 110.86H109.038C110.19 110.86 111.004 109.722 110.622 108.635C109.704 106.028 107.22 104.16 104.3 104.16Z" fill="#FF5A35"/>
<path d="M97.5991 104.16H83.7516V83.612C83.7516 72.5103 74.752 63.5107 63.6503 63.5107H52.5238C49.4753 63.5107 46.8112 65.5684 46.0409 68.5177L39.3465 94.1471C37.8032 100.046 32.4763 104.16 26.3789 104.16H3.35021C1.5 104.16 -5.89545e-07 105.66 -5.89545e-07 107.51C-5.89545e-07 109.36 1.5 110.86 3.35021 110.86H29.5013C37.1398 110.86 44.1172 106.532 47.5098 99.6883L53.6005 87.4087H73.7009V104.16C73.7009 107.86 76.7007 110.86 80.4014 110.86H104.3C104.3 107.16 101.3 104.16 97.5991 104.16Z" fill="#FF7A3C"/>
<path d="M104.3 13.2575L97.5991 24.4018L104.3 35.5462C104.917 35.0607 105.434 34.4411 105.798 33.7125L109.585 26.1377C110.516 24.277 111 22.2251 111 20.1446V13.2575H104.3Z" fill="#FF3A2F"/>
<path d="M90.8987 13.2575V20.1446C90.8987 22.2251 91.3831 24.2768 92.3134 26.1377L96.1007 33.7125C97.0189 35.5491 98.8959 36.7092 100.949 36.7092C102.188 36.7092 103.361 36.2846 104.299 35.5465V13.2575H90.8987Z" fill="#FF5A35"/>
</svg>
