<svg width="23" height="19" viewBox="0 0 23 19" fill="none" xmlns="http://www.w3.org/2000/svg">
<path d="M20.8437 0.874988H2.15627C0.967227 0.874988 2.76607e-07 1.84222 2.76607e-07 3.03125V15.9687C2.76607e-07 17.1578 0.967227 18.125 2.15627 18.125H20.8437C22.0328 18.125 23 17.1578 23 15.9687V3.03125C23 1.84222 22.0328 0.874988 20.8437 0.874988ZM20.8437 2.31248C20.9414 2.31248 21.0343 2.33274 21.1192 2.36813L11.5 10.7052L1.88073 2.36813C1.96566 2.33279 2.05856 2.31248 2.15622 2.31248H20.8437ZM20.8437 16.6875H2.15627C1.7597 16.6875 1.43749 16.3653 1.43749 15.9687V3.88685L11.029 12.1995C11.1645 12.3167 11.3323 12.375 11.5 12.375C11.6678 12.375 11.8355 12.3168 11.971 12.1995L21.5625 3.88685V15.9687C21.5625 16.3653 21.2403 16.6875 20.8437 16.6875Z" fill="#FF5959"/>
<path d="M20.8437 0.874988H2.15627C0.967227 0.874988 2.76607e-07 1.84222 2.76607e-07 3.03125V15.9687C2.76607e-07 17.1578 0.967227 18.125 2.15627 18.125H20.8437C22.0328 18.125 23 17.1578 23 15.9687V3.03125C23 1.84222 22.0328 0.874988 20.8437 0.874988ZM20.8437 2.31248C20.9414 2.31248 21.0343 2.33274 21.1192 2.36813L11.5 10.7052L1.88073 2.36813C1.96566 2.33279 2.05856 2.31248 2.15622 2.31248H20.8437ZM20.8437 16.6875H2.15627C1.7597 16.6875 1.43749 16.3653 1.43749 15.9687V3.88685L11.029 12.1995C11.1645 12.3167 11.3323 12.375 11.5 12.375C11.6678 12.375 11.8355 12.3168 11.971 12.1995L21.5625 3.88685V15.9687C21.5625 16.3653 21.2403 16.6875 20.8437 16.6875Z" fill="black" fill-opacity="0.2"/>
</svg>
